<svg width="24" height="24" fill="none" xmlns="http://www.w3.org/2000/svg"><path d="M4.162 10.225a13.51 13.51 0 00.474 3.647c.858 3.082 3.562 5.226 6.293 6.75a2.197 2.197 0 002.142 0c2.731-1.524 5.435-3.668 6.293-6.75a13.51 13.51 0 00.474-3.647 312.969 312.969 0 01-.004-3.184 2.382 2.382 0 00-1.699-2.29c-1.704-.51-3.412-1.006-5.12-1.506a3.614 3.614 0 00-2.03 0c-1.708.5-3.416.997-5.12 1.505a2.382 2.382 0 00-1.7 2.291 317.08 317.08 0 01-.003 3.184z" fill="#FFF" stroke="#FFF" stroke-linecap="round" stroke-linejoin="round"/><path d="M13.708 11.307l1.679-1.232c.074-.057.034-.185-.062-.185h-2.06c-.25 0-.355-.088-.427-.324l-.641-1.988c-.04-.078-.22-.099-.245 0l-.64 1.988c-.086.223-.182.324-.428.324h-2.06c-.109 0-.149.12-.062.184l1.664 1.233c.185.131.24.279.152.494l-.64 1.988c-.019.094.08.189.167.123l1.68-1.233c.197-.127.37-.136.564 0l1.694 1.233c.078.079.188-.035.153-.123l-.641-1.988c-.072-.22-.037-.36.153-.494z" stroke="#FF7800" stroke-linecap="round" stroke-linejoin="round"/></svg>