<svg width="80" height="80" fill="none" xmlns="http://www.w3.org/2000/svg"><path d="M62.831 23.313v-1.68a6 6 0 00-6-6h-45a6 6 0 00-6 6v4.68m0 6.784v20.45a6 6 0 006 6h9.5m-15.5-26.45v-6.784m0 6.784h15.5M49.774 20.4v1.697m7.8-1.697v1.697m-3.85-1.697v1.697M5.831 26.313h5.757a1 1 0 00.958-.711l1.142-3.792a3 3 0 012.872-2.134h10.692a3 3 0 012.872 2.134l.446 1.479m-5.938 10.43l17.475 14.555a11 11 0 0014.07.009l17.529-14.564m-6.537 30.648h-36a7 7 0 01-7-7V33.31a7 7 0 017-7h36a7 7 0 017 7v24.056a7 7 0 01-7 7z" stroke="#FF7800" stroke-width="1.5" stroke-linecap="round" stroke-linejoin="round"/></svg>